<svg width="858.565625px" height="50px" xmlns="http://www.w3.org/2000/svg" viewBox="-179.28281249999998 50 858.565625 50" style="background: rgba(0, 0, 0, 0);" preserveAspectRatio="xMidYMid"><defs><filter id="editing-hole" x="-100%" y="-100%" width="300%" height="300%"><feFlood flood-color="#000" result="black"></feFlood><feMorphology operator="dilate" radius="2" in="SourceGraphic" result="erode"></feMorphology><feGaussianBlur in="erode" stdDeviation="4" result="blur"></feGaussianBlur><feOffset in="blur" dx="2" dy="2" result="offset"></feOffset><feComposite operator="atop" in="offset" in2="black" result="merge"></feComposite><feComposite operator="in" in="merge" in2="SourceGraphic" result="inner-shadow"></feComposite></filter></defs><g filter="url(#editing-hole)"><g transform="translate(-57.67503295838833, 83.84500122070312)"><path d="M4.26 0L0.11 0L2.53-12.54L6.71-12.54L4.26 0ZM17.02-10.07L17.02-10.07L17.02-10.07Q17.71-10.07 18.24-9.92L18.24-9.92L18.24-9.92Q18.26-9.99 18.30-10.20L18.30-10.20L18.39-10.79L18.39-10.79Q18.47-11.17 18.58-11.80L18.58-11.80L18.89-13.30L22.67-13.68L20.56-2.66L20.56-2.66Q20.54-2.55 20.54-2.36L20.54-2.36L20.54-2.05L20.54-2.05Q20.54-1.63 20.75-1.32L20.75-1.32L20.75-1.32Q20.96-1.01 21.30-1.01L21.30-1.01L21.30-1.01Q20.92-0.11 19.76 0.27L19.76 0.27L19.76 0.27Q19.36 0.38 18.80 0.38L18.80 0.38L18.80 0.38Q18.24 0.38 17.73 0.09L17.73 0.09L17.73 0.09Q17.21-0.21 17.06-0.70L17.06-0.70L17.06-0.70Q16.76-0.21 16.15 0.09L16.15 0.09L16.15 0.09Q15.54 0.38 14.66 0.38L14.66 0.38L14.66 0.38Q13.77 0.38 13.04 0.15L13.04 0.15L13.04 0.15Q12.31-0.08 11.86-0.57L11.86-0.57L11.86-0.57Q11.02-1.54 11.02-3.74L11.02-3.74L11.02-3.74Q11.02-6.59 12.69-8.32L12.69-8.32L12.69-8.32Q14.36-10.07 17.02-10.07ZM16.89-8.93L16.89-8.93L16.89-8.93Q16.19-8.93 15.81-8.17L15.81-8.17L15.81-8.17Q15.43-7.41 15.04-5.53L15.04-5.53L15.04-5.53Q14.65-3.65 14.65-1.96L14.65-1.96L14.65-1.96Q14.65-0.80 15.33-0.80L15.33-0.80L15.33-0.80Q15.94-0.80 16.37-1.41L16.37-1.41L16.37-1.41Q16.80-2.01 16.97-3.02L16.97-3.02L17.99-8.59L17.99-8.59Q17.59-8.93 16.89-8.93ZM27.06 0.38L27.06 0.38L27.06 0.38Q22.88 0.38 22.88-3.55L22.88-3.55L22.88-3.55Q22.88-6.35 24.41-8.15L24.41-8.15L24.41-8.15Q26.05-10.07 28.88-10.07L28.88-10.07L28.88-10.07Q30.93-10.07 31.98-9.12L31.98-9.12L31.98-9.12Q33.02-8.17 33.02-6.17L33.02-6.17L33.02-6.17Q33.02-3.13 31.39-1.37L31.39-1.37L31.39-1.37Q29.79 0.38 27.06 0.38ZM27.55-7.88L27.55-7.88L27.55-7.88Q27.32-7.37 27.14-6.60L27.14-6.60L27.14-6.60Q26.96-5.83 26.73-4.62L26.73-4.62L26.73-4.62Q26.51-3.40 26.51-1.90L26.51-1.90L26.51-1.90Q26.51-1.41 26.67-1.08L26.67-1.08L26.67-1.08Q26.83-0.76 27.27-0.76L27.27-0.76L27.27-0.76Q27.70-0.76 27.98-0.97L27.98-0.97L27.98-0.97Q28.25-1.18 28.46-1.67L28.46-1.67L28.46-1.67Q28.84-2.55 29.15-4.17L29.15-4.17L29.15-4.17Q29.45-5.79 29.48-6.50L29.48-6.50L29.48-6.50Q29.51-7.20 29.51-7.72L29.51-7.72L29.51-7.72Q29.51-8.25 29.36-8.59L29.36-8.59L29.36-8.59Q29.20-8.93 28.78-8.93L28.78-8.93L28.78-8.93Q28.35-8.93 28.06-8.66L28.06-8.66L28.06-8.66Q27.78-8.40 27.55-7.88ZM42.18 0.38L42.18 0.38L42.18 0.38Q39.88 0.38 39.88-1.41L39.88-1.41L39.88-1.41Q39.90-1.90 40.05-2.74L40.05-2.74L40.39-4.48L40.39-4.48Q40.91-6.95 40.91-7.50L40.91-7.50L40.91-7.50Q40.91-8.61 40.26-8.61L40.26-8.61L40.26-8.61Q39.18-8.61 38.61-5.78L38.61-5.78L37.49 0L33.67 0.38L35.64-9.71L38.76-10.07L38.46-8.21L38.46-8.21Q39.35-10.07 42.09-10.07L42.09-10.07L42.09-10.07Q43.41-10.07 43.98-9.51L43.98-9.51L43.98-9.51Q44.54-8.95 44.54-7.69L44.54-7.69L44.54-7.69Q44.54-6.52 43.93-3.76L43.93-3.76L43.93-3.76Q43.64-2.53 43.64-2.06L43.64-2.06L43.64-2.06Q43.64-1.60 43.90-1.33L43.90-1.33L43.90-1.33Q44.16-1.06 44.54-1.03L44.54-1.03L44.54-1.03Q44.35-0.38 43.69 0L43.69 0L43.69 0Q43.03 0.38 42.18 0.38ZM48.81-8.76L46.80-8.76L46.80-8.76Q47.50-11.19 47.54-13.76L47.54-13.76L48.09-13.83L48.09-13.83Q48.37-13.87 48.58-13.87L48.58-13.87L48.58-13.87Q49.42-13.87 49.88-13.46L49.88-13.46L49.88-13.46Q50.33-13.05 50.33-12.33L50.33-12.33L50.33-12.33Q50.33-11.57 49.99-10.73L49.99-10.73L49.99-10.73Q49.38-9.25 48.81-8.76L48.81-8.76ZM50.56-1.90L50.56-1.90L50.56-1.90Q50.56-2.41 50.83-3.71L50.83-3.71L51.83-8.83L50.71-8.83L50.79-9.40L50.79-9.40Q53.07-10.09 55.27-11.76L55.27-11.76L56.18-11.76L55.73-9.69L57.21-9.69L57.04-8.83L55.58-8.83L54.61-3.71L54.61-3.71Q54.36-2.53 54.36-2.13L54.36-2.13L54.36-2.13Q54.36-1.22 55.16-1.03L55.16-1.03L55.16-1.03Q54.97-0.38 54.28 0L54.28 0L54.28 0Q53.60 0.38 52.63 0.38L52.63 0.38L52.63 0.38Q51.66 0.38 51.11-0.23L51.11-0.23L51.11-0.23Q50.56-0.84 50.56-1.90ZM61.33-1.90L61.33-1.90L61.33-1.90Q61.33-2.41 61.60-3.71L61.60-3.71L62.61-8.83L61.48-8.83L61.56-9.40L61.56-9.40Q63.84-10.09 66.04-11.76L66.04-11.76L66.96-11.76L66.50-9.69L67.98-9.69L67.81-8.83L66.35-8.83L65.38-3.71L65.38-3.71Q65.13-2.53 65.13-2.13L65.13-2.13L65.13-2.13Q65.13-1.22 65.93-1.03L65.93-1.03L65.93-1.03Q65.74-0.38 65.06 0L65.06 0L65.06 0Q64.37 0.38 63.40 0.38L63.40 0.38L63.40 0.38Q62.43 0.38 61.88-0.23L61.88-0.23L61.88-0.23Q61.33-0.84 61.33-1.90ZM73.83-5.34L73.83-5.34L73.83-5.34Q74.52-6.55 74.52-7.79L74.52-7.79L74.52-7.79Q74.52-8.61 73.93-8.61L73.93-8.61L73.93-8.61Q73.47-8.61 73.00-7.83L73.00-7.83L73.00-7.83Q72.50-7.05 72.35-6.04L72.35-6.04L71.36 0L67.43 0.38L69.37-9.69L72.50-10.07L72.16-8.15L72.16-8.15Q73.09-10.07 75.18-10.07L75.18-10.07L75.18-10.07Q76.29-10.07 76.88-9.50L76.88-9.50L76.88-9.50Q77.48-8.93 77.48-7.76L77.48-7.76L77.48-7.76Q77.48-6.59 76.71-5.85L76.71-5.85L76.71-5.85Q75.94-5.11 74.63-5.11L74.63-5.11L74.63-5.11Q74.06-5.11 73.83-5.34ZM78.61-0.57L78.61-0.57L78.61-0.57Q78.17-1.06 77.97-1.84L77.97-1.84L77.97-1.84Q77.77-2.62 77.77-3.90L77.77-3.90L77.77-3.90Q77.77-5.17 78.20-6.33L78.20-6.33L78.20-6.33Q78.64-7.49 79.44-8.32L79.44-8.32L79.44-8.32Q81.07-10.07 83.77-10.07L83.77-10.07L83.77-10.07Q84.74-10.07 85.44-9.75L85.44-9.75L88.69-10.07L87.29-2.66L87.29-2.66Q87.23-2.43 87.23-2.01L87.23-2.01L87.23-2.01Q87.23-1.60 87.49-1.33L87.49-1.33L87.49-1.33Q87.74-1.06 88.12-1.03L88.12-1.03L88.12-1.03Q87.93-0.38 87.24 0L87.24 0L87.24 0Q86.55 0.38 85.77 0.38L85.77 0.38L85.77 0.38Q84.99 0.38 84.46 0.09L84.46 0.09L84.46 0.09Q83.94-0.21 83.79-0.70L83.79-0.70L83.79-0.70Q83.49-0.23 82.84 0.08L82.84 0.08L82.84 0.08Q82.19 0.38 81.33 0.38L81.33 0.38L81.33 0.38Q80.47 0.38 79.76 0.15L79.76 0.15L79.76 0.15Q79.06-0.08 78.61-0.57ZM82.62-8.28L82.62-8.28L82.62-8.28Q82.40-7.94 82.21-7.36L82.21-7.36L82.21-7.36Q82.02-6.78 81.71-5.23L81.71-5.23L81.71-5.23Q81.40-3.69 81.40-2.58L81.40-2.58L81.40-2.58Q81.40-1.48 81.57-1.16L81.57-1.16L81.57-1.16Q81.74-0.84 82.04-0.84L82.04-0.84L82.04-0.84Q82.65-0.84 83.10-1.42L83.10-1.42L83.10-1.42Q83.54-1.99 83.71-3.02L83.71-3.02L84.72-8.59L84.72-8.59Q84.32-8.93 83.86-8.93L83.86-8.93L83.86-8.93Q83.39-8.93 83.12-8.78L83.12-8.78L83.12-8.78Q82.84-8.63 82.62-8.28ZM98.97-7.90L98.97-7.90L98.97-7.90Q98.97-7.11 98.31-6.61L98.31-6.61L98.31-6.61Q97.64-6.12 96.56-6.12L96.56-6.12L96.56-6.12Q96.10-6.12 95.84-6.25L95.84-6.25L95.84-6.25Q96.05-6.75 96.11-7.36L96.11-7.36L96.11-7.36Q96.18-7.98 96.18-8.15L96.18-8.15L96.18-8.15Q96.18-8.95 95.63-8.95L95.63-8.95L95.63-8.95Q95.25-8.95 94.82-8.47L94.82-8.47L94.82-8.47Q94.39-8.00 94.03-7.26L94.03-7.26L94.03-7.26Q93.23-5.55 93.23-3.82L93.23-3.82L93.23-3.82Q93.23-2.87 93.59-2.44L93.59-2.44L93.59-2.44Q93.96-2.01 94.75-2.01L94.75-2.01L94.75-2.01Q95.86-2.01 96.73-2.93L96.73-2.93L96.73-2.93Q96.98-3.21 97.11-3.53L97.11-3.53L97.11-3.53Q97.83-3.15 97.83-2.11L97.83-2.11L97.83-2.11Q97.83-1.04 96.65-0.34L96.65-0.34L96.65-0.34Q95.44 0.38 93.50 0.38L93.50 0.38L93.50 0.38Q89.64 0.38 89.64-3.71L89.64-3.71L89.64-3.71Q89.64-6.69 91.33-8.40L91.33-8.40L91.33-8.40Q92.97-10.07 95.97-10.07L95.97-10.07L95.97-10.07Q98.97-10.07 98.97-7.90ZM104.39-9.01L104.39-9.01L104.39-9.01Q105.41-10.07 107.58-10.07L107.58-10.07L107.58-10.07Q108.78-10.07 109.43-9.43L109.43-9.43L109.43-9.43Q110.09-8.80 110.09-7.63L110.09-7.63L110.09-7.63Q110.09-6.46 109.43-5.63L109.43-5.63L109.43-5.63Q108.78-4.81 107.56-4.46L107.56-4.46L107.56-4.46Q107.65-4.08 107.79-3.69L107.79-3.69L108.05-2.93L108.05-2.93Q108.41-1.96 108.70-1.61L108.70-1.61L108.70-1.61Q108.98-1.27 109.36-1.16L109.36-1.16L109.36-1.16Q109.16-0.38 108.40 0.04L108.40 0.04L108.40 0.04Q107.79 0.38 106.95 0.38L106.95 0.38L106.95 0.38Q104.50 0.38 104.18-3.40L104.18-3.40L104.18-3.40Q104.12-3.93 104.12-4.46L104.12-4.46L104.12-4.46Q105.07-4.73 105.74-5.62L105.74-5.62L105.74-5.62Q106.40-6.52 106.40-7.56L106.40-7.56L106.40-7.56Q106.40-8.61 105.66-8.61L105.66-8.61L105.66-8.61Q105.13-8.61 104.71-8.02L104.71-8.02L104.71-8.02Q104.29-7.43 104.10-6.42L104.10-6.42L102.85 0L99.01 0.38L101.67-13.30L105.49-13.68L105.05-11.42L105.05-11.42Q104.77-9.82 104.39-9.01ZM120.92-2.15L120.92-2.15L120.92-2.15Q119.93-1.12 118.12-1.12L118.12-1.12L118.12-1.12Q115.86-1.12 115.39-2.77L115.39-2.77L115.39-2.77Q115.24-3.27 115.24-3.82L115.24-3.82L115.24-3.82Q115.24-4.37 115.35-4.94L115.35-4.94L116.24-9.69L120.10-10.07L119.05-4.54L119.05-4.54Q119.02-4.29 118.96-4.03L118.96-4.03L118.96-4.03Q118.90-3.76 118.90-3.49L118.90-3.49L118.90-3.49Q118.90-3.21 119.00-3.03L119.00-3.03L119.00-3.03Q119.09-2.85 119.23-2.74L119.23-2.74L119.23-2.74Q119.45-2.58 119.86-2.58L119.86-2.58L119.86-2.58Q120.27-2.58 120.62-3.08L120.62-3.08L120.62-3.08Q120.97-3.57 121.14-4.43L121.14-4.43L122.19-9.69L125.93-10.07L124.51-2.60L124.51-2.60Q123.80 1.04 122.36 2.49L122.36 2.49L122.36 2.49Q121.62 3.23 120.66 3.52L120.66 3.52L120.66 3.52Q119.70 3.82 118.47 3.82L118.47 3.82L118.47 3.82Q116.47 3.82 115.33 3.19L115.33 3.19L115.33 3.19Q114.19 2.56 114.19 1.52L114.19 1.52L114.19 1.52Q114.19 0.74 114.78 0.29L114.78 0.29L114.78 0.29Q115.37-0.15 116.28-0.15L116.28-0.15L116.28-0.15Q117.08-0.15 117.69 0.19L117.69 0.19L117.69 0.19Q118.05 0.40 118.22 0.67L118.22 0.67L118.22 0.67Q117.78 1.04 117.78 1.67L117.78 1.67L117.78 1.67Q117.78 2.51 118.54 2.51L118.54 2.51L118.54 2.51Q119.80 2.51 120.52-0.38L120.52-0.38L120.52-0.38Q120.73-1.23 120.92-2.15ZM130.76 0.38L130.76 0.38L130.76 0.38Q126.58 0.38 126.58-3.55L126.58-3.55L126.58-3.55Q126.58-6.35 128.12-8.15L128.12-8.15L128.12-8.15Q129.75-10.07 132.58-10.07L132.58-10.07L132.58-10.07Q134.63-10.07 135.68-9.12L135.68-9.12L135.68-9.12Q136.72-8.17 136.72-6.17L136.72-6.17L136.72-6.17Q136.72-3.13 135.09-1.37L135.09-1.37L135.09-1.37Q133.49 0.38 130.76 0.38ZM131.25-7.88L131.25-7.88L131.25-7.88Q131.02-7.37 130.84-6.60L130.84-6.60L130.84-6.60Q130.66-5.83 130.44-4.62L130.44-4.62L130.44-4.62Q130.21-3.40 130.21-1.90L130.21-1.90L130.21-1.90Q130.21-1.41 130.37-1.08L130.37-1.08L130.37-1.08Q130.53-0.76 130.97-0.76L130.97-0.76L130.97-0.76Q131.40-0.76 131.68-0.97L131.68-0.97L131.68-0.97Q131.96-1.18 132.16-1.67L132.16-1.67L132.16-1.67Q132.54-2.55 132.85-4.17L132.85-4.17L132.85-4.17Q133.15-5.79 133.18-6.50L133.18-6.50L133.18-6.50Q133.21-7.20 133.21-7.72L133.21-7.72L133.21-7.72Q133.21-8.25 133.06-8.59L133.06-8.59L133.06-8.59Q132.91-8.93 132.48-8.93L132.48-8.93L132.48-8.93Q132.05-8.93 131.77-8.66L131.77-8.66L131.77-8.66Q131.48-8.40 131.25-7.88ZM143.94-0.80L143.94-0.80L143.94-0.80Q143.03 0.38 140.77 0.38L140.77 0.38L140.77 0.38Q139.59 0.38 138.74-0.33L138.74-0.33L138.74-0.33Q137.88-1.04 137.88-2.07L137.88-2.07L137.88-2.07Q137.88-2.64 137.94-2.93L137.94-2.93L139.21-9.69L143.07-10.07L141.68-2.74L141.68-2.74Q141.61-2.32 141.61-2.07L141.61-2.07L141.61-2.07Q141.61-0.97 142.27-0.97L142.27-0.97L142.27-0.97Q143.01-0.97 143.55-1.98L143.55-1.98L143.55-1.98Q143.72-2.30 143.79-2.72L143.79-2.72L145.14-9.69L148.88-10.07L147.48-2.66L147.48-2.66Q147.42-2.38 147.42-2.07L147.42-2.07L147.42-2.07Q147.42-1.77 147.59-1.43L147.59-1.43L147.59-1.43Q147.76-1.10 148.31-1.03L148.31-1.03L148.31-1.03Q148.20-0.57 147.80-0.27L147.80-0.27L147.80-0.27Q146.97 0.38 146.06 0.38L146.06 0.38L146.06 0.38Q145.16 0.38 144.63 0.06L144.63 0.06L144.63 0.06Q144.10-0.27 143.94-0.80ZM158.38-1.04L158.38-1.04L158.38-1.04Q157.80 0.38 155.91 0.38L155.91 0.38L155.91 0.38Q154.94 0.38 154.34-0.28L154.34-0.28L154.34-0.28Q153.82-0.87 153.82-1.46L153.82-1.46L153.82-1.46Q153.82-3.00 154.53-6.00L154.53-6.00L155.23-9.69L159.09-10.07L157.93-4.07L157.93-4.07Q157.61-2.66 157.61-2.17L157.61-2.17L157.61-2.17Q157.61-1.08 158.38-1.04ZM155.57-12.33L155.57-12.33L155.57-12.33Q155.57-13.07 156.19-13.47L156.19-13.47L156.19-13.47Q156.81-13.87 157.70-13.87L157.70-13.87L157.70-13.87Q158.59-13.87 159.13-13.47L159.13-13.47L159.13-13.47Q159.68-13.07 159.68-12.33L159.68-12.33L159.68-12.33Q159.68-11.59 159.08-11.21L159.08-11.21L159.08-11.21Q158.48-10.83 157.59-10.83L157.59-10.83L157.59-10.83Q156.69-10.83 156.13-11.21L156.13-11.21L156.13-11.21Q155.57-11.59 155.57-12.33ZM168.04 0.38L168.04 0.38L168.04 0.38Q165.74 0.38 165.74-1.41L165.74-1.41L165.74-1.41Q165.76-1.90 165.91-2.74L165.91-2.74L166.25-4.48L166.25-4.48Q166.76-6.95 166.76-7.50L166.76-7.50L166.76-7.50Q166.76-8.61 166.12-8.61L166.12-8.61L166.12-8.61Q165.03-8.61 164.46-5.78L164.46-5.78L163.34 0L159.52 0.38L161.50-9.71L164.62-10.07L164.31-8.21L164.31-8.21Q165.21-10.07 167.94-10.07L167.94-10.07L167.94-10.07Q169.27-10.07 169.83-9.51L169.83-9.51L169.83-9.51Q170.39-8.95 170.39-7.69L170.39-7.69L170.39-7.69Q170.39-6.52 169.78-3.76L169.78-3.76L169.78-3.76Q169.50-2.53 169.50-2.06L169.50-2.06L169.50-2.06Q169.50-1.60 169.76-1.33L169.76-1.33L169.76-1.33Q170.01-1.06 170.39-1.03L170.39-1.03L170.39-1.03Q170.20-0.38 169.55 0L169.55 0L169.55 0Q168.89 0.38 168.04 0.38ZM176.65-0.57L176.65-0.57L176.65-0.57Q176.21-1.06 176.01-1.84L176.01-1.84L176.01-1.84Q175.81-2.62 175.81-3.90L175.81-3.90L175.81-3.90Q175.81-5.17 176.24-6.33L176.24-6.33L176.24-6.33Q176.68-7.49 177.48-8.32L177.48-8.32L177.48-8.32Q179.11-10.07 181.81-10.07L181.81-10.07L181.81-10.07Q182.78-10.07 183.48-9.75L183.48-9.75L186.73-10.07L185.33-2.66L185.33-2.66Q185.27-2.43 185.27-2.01L185.27-2.01L185.27-2.01Q185.27-1.60 185.53-1.33L185.53-1.33L185.53-1.33Q185.78-1.06 186.16-1.03L186.16-1.03L186.16-1.03Q185.97-0.38 185.28 0L185.28 0L185.28 0Q184.59 0.38 183.81 0.38L183.81 0.38L183.81 0.38Q183.03 0.38 182.50 0.09L182.50 0.09L182.50 0.09Q181.98-0.21 181.83-0.70L181.83-0.70L181.83-0.70Q181.53-0.23 180.88 0.08L180.88 0.08L180.88 0.08Q180.23 0.38 179.37 0.38L179.37 0.38L179.37 0.38Q178.51 0.38 177.80 0.15L177.80 0.15L177.80 0.15Q177.10-0.08 176.65-0.57ZM180.66-8.28L180.66-8.28L180.66-8.28Q180.44-7.94 180.25-7.36L180.25-7.36L180.25-7.36Q180.06-6.78 179.75-5.23L179.75-5.23L179.75-5.23Q179.44-3.69 179.44-2.58L179.44-2.58L179.44-2.58Q179.44-1.48 179.61-1.16L179.61-1.16L179.61-1.16Q179.78-0.84 180.08-0.84L180.08-0.84L180.08-0.84Q180.69-0.84 181.14-1.42L181.14-1.42L181.14-1.42Q181.58-1.99 181.75-3.02L181.75-3.02L182.76-8.59L182.76-8.59Q182.36-8.93 181.90-8.93L181.90-8.93L181.90-8.93Q181.43-8.93 181.16-8.78L181.16-8.78L181.16-8.78Q180.88-8.63 180.66-8.28ZM195.80 0.38L195.80 0.38L195.80 0.38Q193.50 0.38 193.50-1.41L193.50-1.41L193.50-1.41Q193.52-1.90 193.67-2.74L193.67-2.74L194.01-4.48L194.01-4.48Q194.52-6.95 194.52-7.50L194.52-7.50L194.52-7.50Q194.52-8.61 193.88-8.61L193.88-8.61L193.88-8.61Q192.79-8.61 192.22-5.78L192.22-5.78L191.10 0L187.28 0.38L189.26-9.71L192.38-10.07L192.07-8.21L192.07-8.21Q192.96-10.07 195.70-10.07L195.70-10.07L195.70-10.07Q197.03-10.07 197.59-9.51L197.59-9.51L197.59-9.51Q198.15-8.95 198.15-7.69L198.15-7.69L198.15-7.69Q198.15-6.52 197.54-3.76L197.54-3.76L197.54-3.76Q197.26-2.53 197.26-2.06L197.26-2.06L197.26-2.06Q197.26-1.60 197.51-1.33L197.51-1.33L197.51-1.33Q197.77-1.06 198.15-1.03L198.15-1.03L198.15-1.03Q197.96-0.38 197.31 0L197.31 0L197.31 0Q196.65 0.38 195.80 0.38ZM205.71-2.15L205.71-2.15L205.71-2.15Q204.73-1.12 202.92-1.12L202.92-1.12L202.92-1.12Q200.66-1.12 200.18-2.77L200.18-2.77L200.18-2.77Q200.03-3.27 200.03-3.82L200.03-3.82L200.03-3.82Q200.03-4.37 200.15-4.94L200.15-4.94L201.04-9.69L204.90-10.07L203.85-4.54L203.85-4.54Q203.81-4.29 203.76-4.03L203.76-4.03L203.76-4.03Q203.70-3.76 203.70-3.49L203.70-3.49L203.70-3.49Q203.70-3.21 203.79-3.03L203.79-3.03L203.79-3.03Q203.89-2.85 204.02-2.74L204.02-2.74L204.02-2.74Q204.25-2.58 204.66-2.58L204.66-2.58L204.66-2.58Q205.07-2.58 205.42-3.08L205.42-3.08L205.42-3.08Q205.77-3.57 205.94-4.43L205.94-4.43L206.99-9.69L210.73-10.07L209.30-2.60L209.30-2.60Q208.60 1.04 207.16 2.49L207.16 2.49L207.16 2.49Q206.42 3.23 205.46 3.52L205.46 3.52L205.46 3.52Q204.50 3.82 203.26 3.82L203.26 3.82L203.26 3.82Q201.27 3.82 200.13 3.19L200.13 3.19L200.13 3.19Q198.99 2.56 198.99 1.52L198.99 1.52L198.99 1.52Q198.99 0.74 199.58 0.29L199.58 0.29L199.58 0.29Q200.17-0.15 201.08-0.15L201.08-0.15L201.08-0.15Q201.88-0.15 202.48 0.19L202.48 0.19L202.48 0.19Q202.84 0.40 203.02 0.67L203.02 0.67L203.02 0.67Q202.58 1.04 202.58 1.67L202.58 1.67L202.58 1.67Q202.58 2.51 203.34 2.51L203.34 2.51L203.34 2.51Q204.59 2.51 205.31-0.38L205.31-0.38L205.31-0.38Q205.52-1.23 205.71-2.15ZM229.50-3.17L229.50-3.17Q228.25-1.44 227.04-0.53L227.04-0.53L227.04-0.53Q225.83 0.38 224.59 0.38L224.59 0.38L224.59 0.38Q223.34 0.38 222.91 0.13L222.91 0.13L222.91-4.05L222.91-4.05Q221.82-1.16 219.89-0.04L219.89-0.04L219.89-0.04Q219.18 0.38 218.52 0.38L218.52 0.38L218.52 0.38Q217.25 0.38 216.69 0.13L216.69 0.13L216.69 0.13Q216.56-4.22 216.45-5.42L216.45-5.42L216.45-5.42Q216.33-6.63 216.24-7.37L216.24-7.37L216.24-7.37Q216.05-8.85 215.40-9.46L215.40-9.46L215.40-9.46Q216.22-10.07 217.36-10.07L217.36-10.07L217.36-10.07Q219.56-10.07 219.87-7.33L219.87-7.33L219.87-7.33Q219.94-6.69 219.94-6.00L219.94-6.00L219.94-6.00Q219.94-4.98 219.72-1.41L219.72-1.41L219.72-1.41Q220.17-1.61 220.66-2.37L220.66-2.37L220.66-2.37Q221.14-3.12 221.54-4.14L221.54-4.14L221.54-4.14Q222.43-6.52 222.43-8.57L222.43-8.57L222.43-8.57Q222.43-8.89 222.35-9.23L222.35-9.23L222.35-9.23Q222.26-9.58 222.17-9.67L222.17-9.67L222.17-9.67Q222.83-10.07 223.85-10.07L223.85-10.07L223.85-10.07Q224.86-10.07 225.35-9.38L225.35-9.38L225.35-9.38Q225.83-8.68 225.97-7.41L225.97-7.41L225.97-7.41Q226.12-5.79 226.12-4.83L226.12-4.83L226.12-4.83Q226.12-3.48 225.99-1.48L225.99-1.48L225.99-1.48Q226.94-2.17 227.72-4.41L227.72-4.41L227.72-4.41Q228.49-6.65 228.49-8.25L228.49-8.25L228.49-8.25Q228.49-8.95 228.38-9.37L228.38-9.37L228.38-9.37Q229.01-10.07 230.09-10.07L230.09-10.07L230.09-10.07Q230.75-10.07 231.24-9.71L231.24-9.71L231.24-9.71Q231.72-9.35 231.72-8.67L231.72-8.67L231.72-8.67Q231.72-8.00 231.52-7.28L231.52-7.28L231.52-7.28Q231.32-6.55 231.00-5.81L231.00-5.81L231.00-5.81Q230.38-4.33 229.50-3.17L229.50-3.17ZM233.06-0.57L233.06-0.57L233.06-0.57Q232.62-1.06 232.42-1.84L232.42-1.84L232.42-1.84Q232.22-2.62 232.22-3.90L232.22-3.90L232.22-3.90Q232.22-5.17 232.66-6.33L232.66-6.33L232.66-6.33Q233.09-7.49 233.89-8.32L233.89-8.32L233.89-8.32Q235.52-10.07 238.22-10.07L238.22-10.07L238.22-10.07Q239.19-10.07 239.89-9.75L239.89-9.75L243.14-10.07L241.74-2.66L241.74-2.66Q241.68-2.43 241.68-2.01L241.68-2.01L241.68-2.01Q241.68-1.60 241.94-1.33L241.94-1.33L241.94-1.33Q242.19-1.06 242.57-1.03L242.57-1.03L242.57-1.03Q242.38-0.38 241.69 0L241.69 0L241.69 0Q241.00 0.38 240.22 0.38L240.22 0.38L240.22 0.38Q239.44 0.38 238.92 0.09L238.92 0.09L238.92 0.09Q238.39-0.21 238.24-0.70L238.24-0.70L238.24-0.70Q237.94-0.23 237.29 0.08L237.29 0.08L237.29 0.08Q236.64 0.38 235.78 0.38L235.78 0.38L235.78 0.38Q234.92 0.38 234.21 0.15L234.21 0.15L234.21 0.15Q233.51-0.08 233.06-0.57ZM237.07-8.28L237.07-8.28L237.07-8.28Q236.85-7.94 236.66-7.36L236.66-7.36L236.66-7.36Q236.47-6.78 236.16-5.23L236.16-5.23L236.16-5.23Q235.85-3.69 235.85-2.58L235.85-2.58L235.85-2.58Q235.85-1.48 236.02-1.16L236.02-1.16L236.02-1.16Q236.19-0.84 236.49-0.84L236.49-0.84L236.49-0.84Q237.10-0.84 237.55-1.42L237.55-1.42L237.55-1.42Q237.99-1.99 238.16-3.02L238.16-3.02L239.17-8.59L239.17-8.59Q238.77-8.93 238.31-8.93L238.31-8.93L238.31-8.93Q237.84-8.93 237.57-8.78L237.57-8.78L237.57-8.78Q237.29-8.63 237.07-8.28ZM250.21-2.15L250.21-2.15L250.21-2.15Q249.22-1.12 247.42-1.12L247.42-1.12L247.42-1.12Q245.16-1.12 244.68-2.77L244.68-2.77L244.68-2.77Q244.53-3.27 244.53-3.82L244.53-3.82L244.53-3.82Q244.53-4.37 244.64-4.94L244.64-4.94L245.54-9.69L249.39-10.07L248.35-4.54L248.35-4.54Q248.31-4.29 248.25-4.03L248.25-4.03L248.25-4.03Q248.20-3.76 248.20-3.49L248.20-3.49L248.20-3.49Q248.20-3.21 248.29-3.03L248.29-3.03L248.29-3.03Q248.39-2.85 248.52-2.74L248.52-2.74L248.52-2.74Q248.75-2.58 249.16-2.58L249.16-2.58L249.16-2.58Q249.56-2.58 249.92-3.08L249.92-3.08L249.92-3.08Q250.27-3.57 250.44-4.43L250.44-4.43L251.48-9.69L255.23-10.07L253.80-2.60L253.80-2.60Q253.10 1.04 251.65 2.49L251.65 2.49L251.65 2.49Q250.91 3.23 249.95 3.52L249.95 3.52L249.95 3.52Q248.99 3.82 247.76 3.82L247.76 3.82L247.76 3.82Q245.76 3.82 244.62 3.19L244.62 3.19L244.62 3.19Q243.48 2.56 243.48 1.52L243.48 1.52L243.48 1.52Q243.48 0.74 244.07 0.29L244.07 0.29L244.07 0.29Q244.66-0.15 245.57-0.15L245.57-0.15L245.57-0.15Q246.37-0.15 246.98 0.19L246.98 0.19L246.98 0.19Q247.34 0.40 247.51 0.67L247.51 0.67L247.51 0.67Q247.08 1.04 247.08 1.67L247.08 1.67L247.08 1.67Q247.08 2.51 247.84 2.51L247.84 2.51L247.84 2.51Q249.09 2.51 249.81-0.38L249.81-0.38L249.81-0.38Q250.02-1.23 250.21-2.15ZM254.24 2.45L254.24 2.45L254.24 2.45Q255.70 0.87 255.70-1.10L255.70-1.10L255.70-1.10Q255.70-1.71 255.49-2.28L255.49-2.28L255.49-2.28Q255.72-2.43 256.18-2.54L256.18-2.54L256.18-2.54Q256.63-2.64 256.97-2.64L256.97-2.64L256.97-2.64Q257.81-2.64 258.30-2.19L258.30-2.19L258.30-2.19Q258.80-1.75 258.80-0.97L258.80-0.97L258.80-0.97Q258.80-0.19 258.49 0.44L258.49 0.44L258.49 0.44Q258.19 1.06 257.68 1.54L257.68 1.54L257.68 1.54Q256.58 2.56 255.06 2.56L255.06 2.56L255.06 2.56Q254.75 2.56 254.24 2.45ZM274.06-2.11L274.06-2.11L274.06-2.11Q274.06-1.27 274.91-1.03L274.91-1.03L274.91-1.03Q274.70-0.32 273.88 0.06L273.88 0.06L273.88 0.06Q273.20 0.38 272.45 0.38L272.45 0.38L272.45 0.38Q271.70 0.38 271.31 0.18L271.31 0.18L271.31 0.18Q270.92-0.02 270.71-0.34L270.71-0.34L270.71-0.34Q270.37-0.84 270.37-1.77L270.37-1.77L270.37-1.77Q270.37-2.32 270.67-3.84L270.67-3.84L270.94-5.28L270.94-5.28Q271.26-6.93 271.26-7.54L271.26-7.54L271.26-7.54Q271.26-8.61 270.67-8.61L270.67-8.61L270.67-8.61Q269.93-8.61 269.46-7.52L269.46-7.52L269.46-7.52Q269.27-7.11 269.13-6.48L269.13-6.48L267.84 0L264.02 0.38L266.70-13.30L270.52-13.68L270.37-12.92L270.37-12.92Q269.84-9.99 269.38-9.01L269.38-9.01L269.38-9.01Q270.45-10.07 272.40-10.07L272.40-10.07L272.40-10.07Q274.47-10.07 274.85-8.70L274.85-8.70L274.85-8.70Q274.99-8.27 274.99-7.88L274.99-7.88L274.99-7.88Q274.99-7.50 274.96-7.21L274.96-7.21L274.96-7.21Q274.93-6.92 274.83-6.38L274.83-6.38L274.59-5.02L274.15-2.87L274.15-2.87Q274.06-2.43 274.06-2.11ZM284.14-3.21L284.14-3.21L284.14-3.21Q284.62-2.89 284.62-2.18L284.62-2.18L284.62-2.18Q284.62-1.46 284.26-1.01L284.26-1.01L284.26-1.01Q283.90-0.55 283.31-0.25L283.31-0.25L283.31-0.25Q282.09 0.38 280.78 0.38L280.78 0.38L280.78 0.38Q279.47 0.38 278.70 0.10L278.70 0.10L278.70 0.10Q277.93-0.19 277.42-0.72L277.42-0.72L277.42-0.72Q276.41-1.73 276.41-3.57L276.41-3.57L276.41-3.57Q276.41-6.44 277.97-8.19L277.97-8.19L277.97-8.19Q279.64-10.07 282.55-10.07L282.55-10.07L282.55-10.07Q284.35-10.07 285.25-9.31L285.25-9.31L285.25-9.31Q285.91-8.74 285.91-7.81L285.91-7.81L285.91-7.81Q285.91-4.46 280.14-4.46L280.14-4.46L280.14-4.46Q280.06-3.97 280.06-3.55L280.06-3.55L280.06-3.55Q280.06-2.68 280.45-2.35L280.45-2.35L280.45-2.35Q280.84-2.01 281.56-2.01L281.56-2.01L281.56-2.01Q282.28-2.01 283.05-2.35L283.05-2.35L283.05-2.35Q283.82-2.68 284.14-3.21ZM280.27-5.28L280.27-5.28L280.27-5.28Q281.62-5.28 282.40-6.12L282.40-6.12L282.40-6.12Q283.18-6.92 283.18-8.19L283.18-8.19L283.18-8.19Q283.18-8.63 283.01-8.86L283.01-8.86L283.01-8.86Q282.85-9.10 282.53-9.10L282.53-9.10L282.53-9.10Q282.21-9.10 281.93-8.98L281.93-8.98L281.93-8.98Q281.66-8.85 281.37-8.44L281.37-8.44L281.37-8.44Q280.67-7.49 280.27-5.28ZM294.59 0.38L294.59 0.38L294.59 0.38Q292.30 0.38 292.30-1.41L292.30-1.41L292.30-1.41Q292.31-1.90 292.47-2.74L292.47-2.74L292.81-4.48L292.81-4.48Q293.32-6.95 293.32-7.50L293.32-7.50L293.32-7.50Q293.32-8.61 292.68-8.61L292.68-8.61L292.68-8.61Q291.59-8.61 291.02-5.78L291.02-5.78L289.90 0L286.08 0.38L288.06-9.71L291.17-10.07L290.87-8.21L290.87-8.21Q291.76-10.07 294.50-10.07L294.50-10.07L294.50-10.07Q295.83-10.07 296.39-9.51L296.39-9.51L296.39-9.51Q296.95-8.95 296.95-7.69L296.95-7.69L296.95-7.69Q296.95-6.52 296.34-3.76L296.34-3.76L296.34-3.76Q296.06-2.53 296.06-2.06L296.06-2.06L296.06-2.06Q296.06-1.60 296.31-1.33L296.31-1.33L296.31-1.33Q296.57-1.06 296.95-1.03L296.95-1.03L296.95-1.03Q296.76-0.38 296.11 0L296.11 0L296.11 0Q295.45 0.38 294.59 0.38ZM307.80-7.90L307.80-7.90L307.80-7.90Q307.80-7.11 307.13-6.61L307.13-6.61L307.13-6.61Q306.47-6.12 305.39-6.12L305.39-6.12L305.39-6.12Q304.93-6.12 304.66-6.25L304.66-6.25L304.66-6.25Q304.87-6.75 304.94-7.36L304.94-7.36L304.94-7.36Q305.01-7.98 305.01-8.15L305.01-8.15L305.01-8.15Q305.01-8.95 304.46-8.95L304.46-8.95L304.46-8.95Q304.08-8.95 303.65-8.47L303.65-8.47L303.65-8.47Q303.22-8.00 302.86-7.26L302.86-7.26L302.86-7.26Q302.06-5.55 302.06-3.82L302.06-3.82L302.06-3.82Q302.06-2.87 302.42-2.44L302.42-2.44L302.42-2.44Q302.78-2.01 303.58-2.01L303.58-2.01L303.58-2.01Q304.68-2.01 305.56-2.93L305.56-2.93L305.56-2.93Q305.80-3.21 305.94-3.53L305.94-3.53L305.94-3.53Q306.66-3.15 306.66-2.11L306.66-2.11L306.66-2.11Q306.66-1.04 305.48-0.34L305.48-0.34L305.48-0.34Q304.27 0.38 302.33 0.38L302.33 0.38L302.33 0.38Q298.47 0.38 298.47-3.71L298.47-3.71L298.47-3.71Q298.47-6.69 300.16-8.40L300.16-8.40L300.16-8.40Q301.80-10.07 304.80-10.07L304.80-10.07L304.80-10.07Q307.80-10.07 307.80-7.90ZM316.01-3.21L316.01-3.21L316.01-3.21Q316.48-2.89 316.48-2.18L316.48-2.18L316.48-2.18Q316.48-1.46 316.12-1.01L316.12-1.01L316.12-1.01Q315.76-0.55 315.17-0.25L315.17-0.25L315.17-0.25Q313.96 0.38 312.64 0.38L312.64 0.38L312.64 0.38Q311.33 0.38 310.56 0.10L310.56 0.10L310.56 0.10Q309.79-0.19 309.28-0.72L309.28-0.72L309.28-0.72Q308.27-1.73 308.27-3.57L308.27-3.57L308.27-3.57Q308.27-6.44 309.83-8.19L309.83-8.19L309.83-8.19Q311.50-10.07 314.41-10.07L314.41-10.07L314.41-10.07Q316.22-10.07 317.11-9.31L317.11-9.31L317.11-9.31Q317.77-8.74 317.77-7.81L317.77-7.81L317.77-7.81Q317.77-4.46 312.00-4.46L312.00-4.46L312.00-4.46Q311.92-3.97 311.92-3.55L311.92-3.55L311.92-3.55Q311.92-2.68 312.31-2.35L312.31-2.35L312.31-2.35Q312.70-2.01 313.42-2.01L313.42-2.01L313.42-2.01Q314.15-2.01 314.92-2.35L314.92-2.35L314.92-2.35Q315.68-2.68 316.01-3.21ZM312.13-5.28L312.13-5.28L312.13-5.28Q313.48-5.28 314.26-6.12L314.26-6.12L314.26-6.12Q315.04-6.92 315.04-8.19L315.04-8.19L315.04-8.19Q315.04-8.63 314.88-8.86L314.88-8.86L314.88-8.86Q314.72-9.10 314.39-9.10L314.39-9.10L314.39-9.10Q314.07-9.10 313.79-8.98L313.79-8.98L313.79-8.98Q313.52-8.85 313.23-8.44L313.23-8.44L313.23-8.44Q312.53-7.49 312.13-5.28ZM330.37 0.38L330.37 0.38L330.37 0.38Q328.07 0.38 328.07-1.41L328.07-1.41L328.07-1.41Q328.09-1.90 328.24-2.74L328.24-2.74L328.59-4.48L328.59-4.48Q329.10-6.95 329.10-7.50L329.10-7.50L329.10-7.50Q329.10-8.61 328.45-8.61L328.45-8.61L328.45-8.61Q327.37-8.61 326.80-5.78L326.80-5.78L325.68 0L321.86 0.38L323.84-9.71L326.95-10.07L326.65-8.21L326.65-8.21Q327.54-10.07 330.28-10.07L330.28-10.07L330.28-10.07Q331.61-10.07 332.17-9.51L332.17-9.51L332.17-9.51Q332.73-8.95 332.73-7.69L332.73-7.69L332.73-7.69Q332.73-6.52 332.12-3.76L332.12-3.76L332.12-3.76Q331.83-2.53 331.83-2.06L331.83-2.06L331.83-2.06Q331.83-1.60 332.09-1.33L332.09-1.33L332.09-1.33Q332.35-1.06 332.73-1.03L332.73-1.03L332.73-1.03Q332.54-0.38 331.88 0L331.88 0L331.88 0Q331.23 0.38 330.37 0.38ZM338.39 0.38L338.39 0.38L338.39 0.38Q334.21 0.38 334.21-3.55L334.21-3.55L334.21-3.55Q334.21-6.35 335.75-8.15L335.75-8.15L335.75-8.15Q337.38-10.07 340.21-10.07L340.21-10.07L340.21-10.07Q342.27-10.07 343.31-9.12L343.31-9.12L343.31-9.12Q344.36-8.17 344.36-6.17L344.36-6.17L344.36-6.17Q344.36-3.13 342.72-1.37L342.72-1.37L342.72-1.37Q341.13 0.38 338.39 0.38ZM338.88-7.88L338.88-7.88L338.88-7.88Q338.66-7.37 338.48-6.60L338.48-6.60L338.48-6.60Q338.29-5.83 338.07-4.62L338.07-4.62L338.07-4.62Q337.84-3.40 337.84-1.90L337.84-1.90L337.84-1.90Q337.84-1.41 338.00-1.08L338.00-1.08L338.00-1.08Q338.16-0.76 338.60-0.76L338.60-0.76L338.60-0.76Q339.04-0.76 339.31-0.97L339.31-0.97L339.31-0.97Q339.59-1.18 339.80-1.67L339.80-1.67L339.80-1.67Q340.18-2.55 340.48-4.17L340.48-4.17L340.48-4.17Q340.78-5.79 340.81-6.50L340.81-6.50L340.81-6.50Q340.84-7.20 340.84-7.72L340.84-7.72L340.84-7.72Q340.84-8.25 340.69-8.59L340.69-8.59L340.69-8.59Q340.54-8.93 340.11-8.93L340.11-8.93L340.11-8.93Q339.68-8.93 339.40-8.66L339.40-8.66L339.40-8.66Q339.11-8.40 338.88-7.88ZM358.72-7.90L358.72-7.90L358.72-7.90Q358.72-7.11 358.05-6.61L358.05-6.61L358.05-6.61Q357.39-6.12 356.31-6.12L356.31-6.12L356.31-6.12Q355.85-6.12 355.58-6.25L355.58-6.25L355.58-6.25Q355.79-6.75 355.86-7.36L355.86-7.36L355.86-7.36Q355.93-7.98 355.93-8.15L355.93-8.15L355.93-8.15Q355.93-8.95 355.38-8.95L355.38-8.95L355.38-8.95Q355.00-8.95 354.57-8.47L354.57-8.47L354.57-8.47Q354.14-8.00 353.78-7.26L353.78-7.26L353.78-7.26Q352.98-5.55 352.98-3.82L352.98-3.82L352.98-3.82Q352.98-2.87 353.34-2.44L353.34-2.44L353.34-2.44Q353.70-2.01 354.50-2.01L354.50-2.01L354.50-2.01Q355.60-2.01 356.48-2.93L356.48-2.93L356.48-2.93Q356.72-3.21 356.86-3.53L356.86-3.53L356.86-3.53Q357.58-3.15 357.58-2.11L357.58-2.11L357.58-2.11Q357.58-1.04 356.40-0.34L356.40-0.34L356.40-0.34Q355.19 0.38 353.25 0.38L353.25 0.38L353.25 0.38Q349.39 0.38 349.39-3.71L349.39-3.71L349.39-3.71Q349.39-6.69 351.08-8.40L351.08-8.40L351.08-8.40Q352.72-10.07 355.72-10.07L355.72-10.07L355.72-10.07Q358.72-10.07 358.72-7.90ZM363.37 0.38L363.37 0.38L363.37 0.38Q359.19 0.38 359.19-3.55L359.19-3.55L359.19-3.55Q359.19-6.35 360.73-8.15L360.73-8.15L360.73-8.15Q362.37-10.07 365.20-10.07L365.20-10.07L365.20-10.07Q367.25-10.07 368.30-9.12L368.30-9.12L368.30-9.12Q369.34-8.17 369.34-6.17L369.34-6.17L369.34-6.17Q369.34-3.13 367.71-1.37L367.71-1.37L367.71-1.37Q366.11 0.38 363.37 0.38ZM363.87-7.88L363.87-7.88L363.87-7.88Q363.64-7.37 363.46-6.60L363.46-6.60L363.46-6.60Q363.28-5.83 363.05-4.62L363.05-4.62L363.05-4.62Q362.82-3.40 362.82-1.90L362.82-1.90L362.82-1.90Q362.82-1.41 362.99-1.08L362.99-1.08L362.99-1.08Q363.15-0.76 363.58-0.76L363.58-0.76L363.58-0.76Q364.02-0.76 364.30-0.97L364.30-0.97L364.30-0.97Q364.57-1.18 364.78-1.67L364.78-1.67L364.78-1.67Q365.16-2.55 365.46-4.17L365.46-4.17L365.46-4.17Q365.77-5.79 365.80-6.50L365.80-6.50L365.80-6.50Q365.83-7.20 365.83-7.72L365.83-7.72L365.83-7.72Q365.83-8.25 365.67-8.59L365.67-8.59L365.67-8.59Q365.52-8.93 365.09-8.93L365.09-8.93L365.09-8.93Q364.67-8.93 364.38-8.66L364.38-8.66L364.38-8.66Q364.10-8.40 363.87-7.88ZM374.60 0.38L374.60 0.38L374.60 0.38Q370.42 0.38 370.42-3.55L370.42-3.55L370.42-3.55Q370.42-6.35 371.96-8.15L371.96-8.15L371.96-8.15Q373.60-10.07 376.43-10.07L376.43-10.07L376.43-10.07Q378.48-10.07 379.52-9.12L379.52-9.12L379.52-9.12Q380.57-8.17 380.57-6.17L380.57-6.17L380.57-6.17Q380.57-3.13 378.94-1.37L378.94-1.37L378.94-1.37Q377.34 0.38 374.60 0.38ZM375.10-7.88L375.10-7.88L375.10-7.88Q374.87-7.37 374.69-6.60L374.69-6.60L374.69-6.60Q374.51-5.83 374.28-4.62L374.28-4.62L374.28-4.62Q374.05-3.40 374.05-1.90L374.05-1.90L374.05-1.90Q374.05-1.41 374.21-1.08L374.21-1.08L374.21-1.08Q374.38-0.76 374.81-0.76L374.81-0.76L374.81-0.76Q375.25-0.76 375.53-0.97L375.53-0.97L375.53-0.97Q375.80-1.18 376.01-1.67L376.01-1.67L376.01-1.67Q376.39-2.55 376.69-4.17L376.69-4.17L376.69-4.17Q377.00-5.79 377.03-6.50L377.03-6.50L377.03-6.50Q377.05-7.20 377.05-7.72L377.05-7.72L377.05-7.72Q377.05-8.25 376.90-8.59L376.90-8.59L376.90-8.59Q376.75-8.93 376.32-8.93L376.32-8.93L376.32-8.93Q375.90-8.93 375.61-8.66L375.61-8.66L375.61-8.66Q375.33-8.40 375.10-7.88ZM386.59-9.01L386.59-9.01L386.59-9.01Q387.62-10.07 389.78-10.07L389.78-10.07L389.78-10.07Q390.98-10.07 391.64-9.43L391.64-9.43L391.64-9.43Q392.29-8.80 392.29-7.63L392.29-7.63L392.29-7.63Q392.29-6.46 391.64-5.63L391.64-5.63L391.64-5.63Q390.98-4.81 389.77-4.46L389.77-4.46L389.77-4.46Q389.86-4.08 389.99-3.69L389.99-3.69L390.26-2.93L390.26-2.93Q390.62-1.96 390.91-1.61L390.91-1.61L390.91-1.61Q391.19-1.27 391.57-1.16L391.57-1.16L391.57-1.16Q391.36-0.38 390.60 0.04L390.60 0.04L390.60 0.04Q389.99 0.38 389.16 0.38L389.16 0.38L389.16 0.38Q386.71 0.38 386.38-3.40L386.38-3.40L386.38-3.40Q386.33-3.93 386.33-4.46L386.33-4.46L386.33-4.46Q387.28-4.73 387.94-5.62L387.94-5.62L387.94-5.62Q388.61-6.52 388.61-7.56L388.61-7.56L388.61-7.56Q388.61-8.61 387.87-8.61L387.87-8.61L387.87-8.61Q387.33-8.61 386.92-8.02L386.92-8.02L386.92-8.02Q386.50-7.43 386.31-6.42L386.31-6.42L385.05 0L381.22 0.38L383.88-13.30L387.69-13.68L387.26-11.42L387.26-11.42Q386.97-9.82 386.59-9.01ZM397.73-1.04L397.73-1.04L397.73-1.04Q397.14 0.38 395.26 0.38L395.26 0.38L395.26 0.38Q394.29 0.38 393.68-0.28L393.68-0.28L393.68-0.28Q393.17-0.87 393.17-1.46L393.17-1.46L393.17-1.46Q393.17-3.00 393.87-6.00L393.87-6.00L394.57-9.69L398.43-10.07L397.27-4.07L397.27-4.07Q396.95-2.66 396.95-2.17L396.95-2.17L396.95-2.17Q396.95-1.08 397.73-1.04ZM394.91-12.33L394.91-12.33L394.91-12.33Q394.91-13.07 395.53-13.47L395.53-13.47L395.53-13.47Q396.15-13.87 397.04-13.87L397.04-13.87L397.04-13.87Q397.94-13.87 398.48-13.47L398.48-13.47L398.48-13.47Q399.02-13.07 399.02-12.33L399.02-12.33L399.02-12.33Q399.02-11.59 398.42-11.21L398.42-11.21L398.42-11.21Q397.82-10.83 396.93-10.83L396.93-10.83L396.93-10.83Q396.04-10.83 395.48-11.21L395.48-11.21L395.48-11.21Q394.91-11.59 394.91-12.33ZM407.04-3.21L407.04-3.21L407.04-3.21Q407.51-2.89 407.51-2.18L407.51-2.18L407.51-2.18Q407.51-1.46 407.15-1.01L407.15-1.01L407.15-1.01Q406.79-0.55 406.20-0.25L406.20-0.25L406.20-0.25Q404.98 0.38 403.67 0.38L403.67 0.38L403.67 0.38Q402.36 0.38 401.59 0.10L401.59 0.10L401.59 0.10Q400.82-0.19 400.31-0.72L400.31-0.72L400.31-0.72Q399.30-1.73 399.30-3.57L399.30-3.57L399.30-3.57Q399.30-6.44 400.86-8.19L400.86-8.19L400.86-8.19Q402.53-10.07 405.44-10.07L405.44-10.07L405.44-10.07Q407.25-10.07 408.14-9.31L408.14-9.31L408.14-9.31Q408.80-8.74 408.80-7.81L408.80-7.81L408.80-7.81Q408.80-4.46 403.03-4.46L403.03-4.46L403.03-4.46Q402.95-3.97 402.95-3.55L402.95-3.55L402.95-3.55Q402.95-2.68 403.34-2.35L403.34-2.35L403.34-2.35Q403.73-2.01 404.45-2.01L404.45-2.01L404.45-2.01Q405.17-2.01 405.94-2.35L405.94-2.35L405.94-2.35Q406.71-2.68 407.04-3.21ZM403.16-5.28L403.16-5.28L403.16-5.28Q404.51-5.28 405.29-6.12L405.29-6.12L405.29-6.12Q406.07-6.92 406.07-8.19L406.07-8.19L406.07-8.19Q406.07-8.63 405.91-8.86L405.91-8.86L405.91-8.86Q405.74-9.10 405.42-9.10L405.42-9.10L405.42-9.10Q405.10-9.10 404.82-8.98L404.82-8.98L404.82-8.98Q404.55-8.85 404.26-8.44L404.26-8.44L404.26-8.44Q403.56-7.49 403.16-5.28ZM415.13-6.67L415.13-6.67L415.13-6.67Q415.40-7.37 415.40-7.98L415.40-7.98L415.40-7.98Q415.40-9.10 414.48-9.10L414.48-9.10L414.48-9.10Q414.01-9.10 413.62-8.67L413.62-8.67L413.62-8.67Q413.23-8.25 413.23-7.71L413.23-7.71L413.23-7.71Q413.23-7.33 413.53-7.03L413.53-7.03L413.53-7.03Q413.97-6.61 415.09-5.93L415.09-5.93L415.09-5.93Q416.21-5.24 416.64-4.68L416.64-4.68L416.64-4.68Q417.07-4.12 417.07-3.35L417.07-3.35L417.07-3.35Q417.07-2.58 416.70-1.88L416.70-1.88L416.70-1.88Q416.33-1.18 415.66-0.68L415.66-0.68L415.66-0.68Q414.24 0.38 411.96 0.38L411.96 0.38L411.96 0.38Q410.72 0.38 409.77-0.27L409.77-0.27L409.77-0.27Q408.82-0.89 408.82-1.63L408.82-1.63L408.82-1.63Q408.82-2.38 409.36-2.81L409.36-2.81L409.36-2.81Q409.91-3.25 410.70-3.25L410.70-3.25L410.70-3.25Q411.50-3.25 412.00-2.94L412.00-2.94L412.00-2.94Q411.75-2.32 411.75-1.90L411.75-1.90L411.75-1.90Q411.75-0.65 412.81-0.65L412.81-0.65L412.81-0.65Q413.27-0.65 413.57-0.93L413.57-0.93L413.57-0.93Q413.88-1.22 413.88-1.71L413.88-1.71L413.88-1.71Q413.88-2.68 412.24-3.71L412.24-3.71L412.24-3.71Q410.91-4.58 410.61-4.92L410.61-4.92L410.61-4.92Q410.10-5.53 410.10-6.29L410.10-6.29L410.10-6.29Q410.10-7.05 410.46-7.77L410.46-7.77L410.46-7.77Q410.82-8.49 411.48-9.01L411.48-9.01L411.48-9.01Q412.87-10.07 415.28-10.07L415.28-10.07L415.28-10.07Q416.52-10.07 417.25-9.58L417.25-9.58L417.25-9.58Q417.98-9.08 417.98-8.25L417.98-8.25L417.98-8.25Q417.98-7.41 417.48-6.93L417.48-6.93L417.48-6.93Q416.97-6.46 416.06-6.46L416.06-6.46L416.06-6.46Q415.43-6.46 415.13-6.67ZM426.74 0.38L426.74 0.38L426.74 0.38Q422.56 0.38 422.56-3.55L422.56-3.55L422.56-3.55Q422.56-6.35 424.10-8.15L424.10-8.15L424.10-8.15Q425.73-10.07 428.56-10.07L428.56-10.07L428.56-10.07Q430.62-10.07 431.66-9.12L431.66-9.12L431.66-9.12Q432.71-8.17 432.71-6.17L432.71-6.17L432.71-6.17Q432.71-3.13 431.07-1.37L431.07-1.37L431.07-1.37Q429.48 0.38 426.74 0.38ZM427.23-7.88L427.23-7.88L427.23-7.88Q427.01-7.37 426.83-6.60L426.83-6.60L426.83-6.60Q426.64-5.83 426.42-4.62L426.42-4.62L426.42-4.62Q426.19-3.40 426.19-1.90L426.19-1.90L426.19-1.90Q426.19-1.41 426.35-1.08L426.35-1.08L426.35-1.08Q426.51-0.76 426.95-0.76L426.95-0.76L426.95-0.76Q427.39-0.76 427.66-0.97L427.66-0.97L427.66-0.97Q427.94-1.18 428.15-1.67L428.15-1.67L428.15-1.67Q428.53-2.55 428.83-4.17L428.83-4.17L428.83-4.17Q429.13-5.79 429.16-6.50L429.16-6.50L429.16-6.50Q429.19-7.20 429.19-7.72L429.19-7.72L429.19-7.72Q429.19-8.25 429.04-8.59L429.04-8.59L429.04-8.59Q428.89-8.93 428.46-8.93L428.46-8.93L428.46-8.93Q428.03-8.93 427.75-8.66L427.75-8.66L427.75-8.66Q427.46-8.40 427.23-7.88ZM439.77-5.34L439.77-5.34L439.77-5.34Q440.46-6.55 440.46-7.79L440.46-7.79L440.46-7.79Q440.46-8.61 439.87-8.61L439.87-8.61L439.87-8.61Q439.41-8.61 438.94-7.83L438.94-7.83L438.94-7.83Q438.44-7.05 438.29-6.04L438.29-6.04L437.30 0L433.37 0.38L435.31-9.69L438.44-10.07L438.10-8.15L438.10-8.15Q439.03-10.07 441.12-10.07L441.12-10.07L441.12-10.07Q442.22-10.07 442.82-9.50L442.82-9.50L442.82-9.50Q443.42-8.93 443.42-7.76L443.42-7.76L443.42-7.76Q443.42-6.59 442.65-5.85L442.65-5.85L442.65-5.85Q441.88-5.11 440.57-5.11L440.57-5.11L440.57-5.11Q440.00-5.11 439.77-5.34ZM445.00 2.26L445.00 2.26L445.00 2.26Q445.99 2.19 446.71 0.95L446.71 0.95L446.71 0.95Q447.26 0 447.62-1.75L447.62-1.75L449.16-9.69L452.98-10.07L451.36-1.75L451.36-1.75Q450.74 1.43 449.77 2.47L449.77 2.47L449.77 2.47Q449.25 3.04 448.59 3.23L448.59 3.23L448.59 3.23Q447.92 3.42 447.16 3.42L447.16 3.42L447.16 3.42Q445.57 3.42 445.00 2.26ZM449.46-12.33L449.46-12.33L449.46-12.33Q449.46-13.07 450.08-13.47L450.08-13.47L450.08-13.47Q450.70-13.87 451.59-13.87L451.59-13.87L451.59-13.87Q452.48-13.87 453.03-13.47L453.03-13.47L453.03-13.47Q453.57-13.07 453.57-12.33L453.57-12.33L453.57-12.33Q453.57-11.59 452.97-11.21L452.97-11.21L452.97-11.21Q452.37-10.83 451.48-10.83L451.48-10.83L451.48-10.83Q450.58-10.83 450.02-11.21L450.02-11.21L450.02-11.21Q449.46-11.59 449.46-12.33ZM454.49-0.57L454.49-0.57L454.49-0.57Q454.04-1.06 453.84-1.84L453.84-1.84L453.84-1.84Q453.64-2.62 453.64-3.90L453.64-3.90L453.64-3.90Q453.64-5.17 454.08-6.33L454.08-6.33L454.08-6.33Q454.52-7.49 455.32-8.32L455.32-8.32L455.32-8.32Q456.95-10.07 459.65-10.07L459.65-10.07L459.65-10.07Q460.62-10.07 461.32-9.75L461.32-9.75L464.57-10.07L463.16-2.66L463.16-2.66Q463.11-2.43 463.11-2.01L463.11-2.01L463.11-2.01Q463.11-1.60 463.36-1.33L463.36-1.33L463.36-1.33Q463.62-1.06 464.00-1.03L464.00-1.03L464.00-1.03Q463.81-0.38 463.12 0L463.12 0L463.12 0Q462.42 0.38 461.64 0.38L461.64 0.38L461.64 0.38Q460.86 0.38 460.34 0.09L460.34 0.09L460.34 0.09Q459.82-0.21 459.67-0.70L459.67-0.70L459.67-0.70Q459.36-0.23 458.72 0.08L458.72 0.08L458.72 0.08Q458.07 0.38 457.21 0.38L457.21 0.38L457.21 0.38Q456.34 0.38 455.64 0.15L455.64 0.15L455.64 0.15Q454.94-0.08 454.49-0.57ZM458.50-8.28L458.50-8.28L458.50-8.28Q458.28-7.94 458.09-7.36L458.09-7.36L458.09-7.36Q457.90-6.78 457.59-5.23L457.59-5.23L457.59-5.23Q457.27-3.69 457.27-2.58L457.27-2.58L457.27-2.58Q457.27-1.48 457.44-1.16L457.44-1.16L457.44-1.16Q457.61-0.84 457.92-0.84L457.92-0.84L457.92-0.84Q458.53-0.84 458.97-1.42L458.97-1.42L458.97-1.42Q459.42-1.99 459.59-3.02L459.59-3.02L460.60-8.59L460.60-8.59Q460.20-8.93 459.73-8.93L459.73-8.93L459.73-8.93Q459.27-8.93 458.99-8.78L458.99-8.78L458.99-8.78Q458.72-8.63 458.50-8.28ZM479.27 0.38L479.27 0.38L479.27 0.38Q476.98 0.38 476.98-1.41L476.98-1.41L476.98-1.41Q476.98-2.19 477.31-3.70L477.31-3.70L477.31-3.70Q477.64-5.21 477.75-5.81L477.75-5.81L477.75-5.81Q478.02-7.20 478.02-7.64L478.02-7.64L478.02-7.64Q478.02-8.61 477.30-8.61L477.30-8.61L477.30-8.61Q476.82-8.61 476.37-7.95L476.37-7.95L476.37-7.95Q475.91-7.30 475.70-5.98L475.70-5.98L474.52 0L470.82 0.38L471.85-4.79L471.85-4.79Q472.02-5.64 472.17-6.61L472.17-6.61L472.17-6.61Q472.32-7.58 472.32-7.73L472.32-7.73L472.32-7.73Q472.32-8.61 471.67-8.61L471.67-8.61L471.67-8.61Q471.24-8.61 470.76-7.96L470.76-7.96L470.76-7.96Q470.29-7.31 470.02-5.98L470.02-5.98L468.86 0L465.12 0.38L467.11-9.69L470.21-10.07L469.89-8.15L469.89-8.15Q470.38-9.18 471.29-9.62L471.29-9.62L471.29-9.62Q472.21-10.07 473.63-10.07L473.63-10.07L473.63-10.07Q474.45-10.07 474.98-9.67L474.98-9.67L474.98-9.67Q475.51-9.27 475.68-8.63L475.68-8.63L475.68-8.63Q476.01-9.29 476.83-9.68L476.83-9.68L476.83-9.68Q477.66-10.07 478.68-10.07L478.68-10.07L478.68-10.07Q479.69-10.07 480.20-9.85L480.20-9.85L480.20-9.85Q480.70-9.63 481.00-9.27L481.00-9.27L481.00-9.27Q481.52-8.61 481.52-7.39L481.52-7.39L481.52-7.39Q481.52-6.19 481.00-3.71L481.00-3.71L481.00-3.71Q480.74-2.49 480.74-2.04L480.74-2.04L480.74-2.04Q480.74-1.60 480.99-1.33L480.99-1.33L480.99-1.33Q481.25-1.06 481.63-1.03L481.63-1.03L481.63-1.03Q481.44-0.38 480.79 0L480.79 0L480.79 0Q480.13 0.38 479.27 0.38ZM487.83-0.57L487.83-0.57L487.83-0.57Q487.39-1.06 487.19-1.84L487.19-1.84L487.19-1.84Q486.99-2.62 486.99-3.90L486.99-3.90L486.99-3.90Q486.99-5.17 487.43-6.33L487.43-6.33L487.43-6.33Q487.86-7.49 488.66-8.32L488.66-8.32L488.66-8.32Q490.29-10.07 492.99-10.07L492.99-10.07L492.99-10.07Q493.96-10.07 494.66-9.75L494.66-9.75L497.91-10.07L496.51-2.66L496.51-2.66Q496.45-2.43 496.45-2.01L496.45-2.01L496.45-2.01Q496.45-1.60 496.71-1.33L496.71-1.33L496.71-1.33Q496.96-1.06 497.34-1.03L497.34-1.03L497.34-1.03Q497.15-0.38 496.46 0L496.46 0L496.46 0Q495.77 0.38 494.99 0.38L494.99 0.38L494.99 0.38Q494.21 0.38 493.69 0.09L493.69 0.09L493.69 0.09Q493.16-0.21 493.01-0.70L493.01-0.70L493.01-0.70Q492.71-0.23 492.06 0.08L492.06 0.08L492.06 0.08Q491.42 0.38 490.55 0.38L490.55 0.38L490.55 0.38Q489.69 0.38 488.98 0.15L488.98 0.15L488.98 0.15Q488.28-0.08 487.83-0.57ZM491.84-8.28L491.84-8.28L491.84-8.28Q491.62-7.94 491.43-7.36L491.43-7.36L491.43-7.36Q491.24-6.78 490.93-5.23L490.93-5.23L490.93-5.23Q490.62-3.69 490.62-2.58L490.62-2.58L490.62-2.58Q490.62-1.48 490.79-1.16L490.79-1.16L490.79-1.16Q490.96-0.84 491.26-0.84L491.26-0.84L491.26-0.84Q491.87-0.84 492.32-1.42L492.32-1.42L492.32-1.42Q492.76-1.99 492.94-3.02L492.94-3.02L493.94-8.59L493.94-8.59Q493.54-8.93 493.08-8.93L493.08-8.93L493.08-8.93Q492.61-8.93 492.34-8.78L492.34-8.78L492.34-8.78Q492.06-8.63 491.84-8.28ZM504.89-5.34L504.89-5.34L504.89-5.34Q505.57-6.55 505.57-7.79L505.57-7.79L505.57-7.79Q505.57-8.61 504.98-8.61L504.98-8.61L504.98-8.61Q504.53-8.61 504.05-7.83L504.05-7.83L504.05-7.83Q503.56-7.05 503.40-6.04L503.40-6.04L502.42 0L498.48 0.38L500.42-9.69L503.56-10.07L503.21-8.15L503.21-8.15Q504.15-10.07 506.24-10.07L506.24-10.07L506.24-10.07Q507.34-10.07 507.94-9.50L507.94-9.50L507.94-9.50Q508.53-8.93 508.53-7.76L508.53-7.76L508.53-7.76Q508.53-6.59 507.77-5.85L507.77-5.85L507.77-5.85Q507.00-5.11 505.68-5.11L505.68-5.11L505.68-5.11Q505.11-5.11 504.89-5.34ZM516.53-3.21L516.53-3.21L516.53-3.21Q517.01-2.89 517.01-2.18L517.01-2.18L517.01-2.18Q517.01-1.46 516.65-1.01L516.65-1.01L516.65-1.01Q516.29-0.55 515.70-0.25L515.70-0.25L515.70-0.25Q514.48 0.38 513.17 0.38L513.17 0.38L513.17 0.38Q511.86 0.38 511.09 0.10L511.09 0.10L511.09 0.10Q510.32-0.19 509.81-0.72L509.81-0.72L509.81-0.72Q508.80-1.73 508.80-3.57L508.80-3.57L508.80-3.57Q508.80-6.44 510.36-8.19L510.36-8.19L510.36-8.19Q512.03-10.07 514.94-10.07L514.94-10.07L514.94-10.07Q516.74-10.07 517.64-9.31L517.64-9.31L517.64-9.31Q518.30-8.74 518.30-7.81L518.30-7.81L518.30-7.81Q518.30-4.46 512.52-4.46L512.52-4.46L512.52-4.46Q512.45-3.97 512.45-3.55L512.45-3.55L512.45-3.55Q512.45-2.68 512.84-2.35L512.84-2.35L512.84-2.35Q513.23-2.01 513.95-2.01L513.95-2.01L513.95-2.01Q514.67-2.01 515.44-2.35L515.44-2.35L515.44-2.35Q516.21-2.68 516.53-3.21ZM512.66-5.28L512.66-5.28L512.66-5.28Q514.01-5.28 514.79-6.12L514.79-6.12L514.79-6.12Q515.56-6.92 515.56-8.19L515.56-8.19L515.56-8.19Q515.56-8.63 515.40-8.86L515.40-8.86L515.40-8.86Q515.24-9.10 514.92-9.10L514.92-9.10L514.92-9.10Q514.60-9.10 514.32-8.98L514.32-8.98L514.32-8.98Q514.04-8.85 513.76-8.44L513.76-8.44L513.76-8.44Q513.06-7.49 512.66-5.28ZM528.96-0.80L528.96-0.80L528.96-0.80Q528.05 0.38 525.79 0.38L525.79 0.38L525.79 0.38Q524.61 0.38 523.75-0.33L523.75-0.33L523.75-0.33Q522.90-1.04 522.90-2.07L522.90-2.07L522.90-2.07Q522.90-2.64 522.96-2.93L522.96-2.93L524.23-9.69L528.09-10.07L526.70-2.74L526.70-2.74Q526.62-2.32 526.62-2.07L526.62-2.07L526.62-2.07Q526.62-0.97 527.29-0.97L527.29-0.97L527.29-0.97Q528.03-0.97 528.56-1.98L528.56-1.98L528.56-1.98Q528.73-2.30 528.81-2.72L528.81-2.72L530.16-9.69L533.90-10.07L532.49-2.66L532.49-2.66Q532.44-2.38 532.44-2.07L532.44-2.07L532.44-2.07Q532.44-1.77 532.61-1.43L532.61-1.43L532.61-1.43Q532.78-1.10 533.33-1.03L533.33-1.03L533.33-1.03Q533.22-0.57 532.82-0.27L532.82-0.27L532.82-0.27Q531.98 0.38 531.08 0.38L531.08 0.38L531.08 0.38Q530.18 0.38 529.64 0.06L529.64 0.06L529.64 0.06Q529.11-0.27 528.96-0.80ZM540.61-6.67L540.61-6.67L540.61-6.67Q540.87-7.37 540.87-7.98L540.87-7.98L540.87-7.98Q540.87-9.10 539.96-9.10L539.96-9.10L539.96-9.10Q539.49-9.10 539.10-8.67L539.10-8.67L539.10-8.67Q538.71-8.25 538.71-7.71L538.71-7.71L538.71-7.71Q538.71-7.33 539.01-7.03L539.01-7.03L539.01-7.03Q539.45-6.61 540.57-5.93L540.57-5.93L540.57-5.93Q541.69-5.24 542.12-4.68L542.12-4.68L542.12-4.68Q542.54-4.12 542.54-3.35L542.54-3.35L542.54-3.35Q542.54-2.58 542.17-1.88L542.17-1.88L542.17-1.88Q541.80-1.18 541.14-0.68L541.14-0.68L541.14-0.68Q539.71 0.38 537.43 0.38L537.43 0.38L537.43 0.38Q536.20 0.38 535.25-0.27L535.25-0.27L535.25-0.27Q534.30-0.89 534.30-1.63L534.30-1.63L534.30-1.63Q534.30-2.38 534.84-2.81L534.84-2.81L534.84-2.81Q535.38-3.25 536.18-3.25L536.18-3.25L536.18-3.25Q536.98-3.25 537.47-2.94L537.47-2.94L537.47-2.94Q537.22-2.32 537.22-1.90L537.22-1.90L537.22-1.90Q537.22-0.65 538.29-0.65L538.29-0.65L538.29-0.65Q538.75-0.65 539.05-0.93L539.05-0.93L539.05-0.93Q539.35-1.22 539.35-1.71L539.35-1.71L539.35-1.71Q539.35-2.68 537.72-3.71L537.72-3.71L537.72-3.71Q536.39-4.58 536.08-4.92L536.08-4.92L536.08-4.92Q535.57-5.53 535.57-6.29L535.57-6.29L535.57-6.29Q535.57-7.05 535.93-7.77L535.93-7.77L535.93-7.77Q536.29-8.49 536.96-9.01L536.96-9.01L536.96-9.01Q538.35-10.07 540.76-10.07L540.76-10.07L540.76-10.07Q541.99-10.07 542.73-9.58L542.73-9.58L542.73-9.58Q543.46-9.08 543.46-8.25L543.46-8.25L543.46-8.25Q543.46-7.41 542.95-6.93L542.95-6.93L542.95-6.93Q542.45-6.46 541.54-6.46L541.54-6.46L541.54-6.46Q540.91-6.46 540.61-6.67ZM551.86-3.21L551.86-3.21L551.86-3.21Q552.33-2.89 552.33-2.18L552.33-2.18L552.33-2.18Q552.33-1.46 551.97-1.01L551.97-1.01L551.97-1.01Q551.61-0.55 551.02-0.25L551.02-0.25L551.02-0.25Q549.80 0.38 548.49 0.38L548.49 0.38L548.49 0.38Q547.18 0.38 546.41 0.10L546.41 0.10L546.41 0.10Q545.64-0.19 545.13-0.72L545.13-0.72L545.13-0.72Q544.12-1.73 544.12-3.57L544.12-3.57L544.12-3.57Q544.12-6.44 545.68-8.19L545.68-8.19L545.68-8.19Q547.35-10.07 550.26-10.07L550.26-10.07L550.26-10.07Q552.06-10.07 552.96-9.31L552.96-9.31L552.96-9.31Q553.62-8.74 553.62-7.81L553.62-7.81L553.62-7.81Q553.62-4.46 547.85-4.46L547.85-4.46L547.85-4.46Q547.77-3.97 547.77-3.55L547.77-3.55L547.77-3.55Q547.77-2.68 548.16-2.35L548.16-2.35L548.16-2.35Q548.55-2.01 549.27-2.01L549.27-2.01L549.27-2.01Q549.99-2.01 550.76-2.35L550.76-2.35L550.76-2.35Q551.53-2.68 551.86-3.21ZM547.98-5.28L547.98-5.28L547.98-5.28Q549.33-5.28 550.11-6.12L550.11-6.12L550.11-6.12Q550.89-6.92 550.89-8.19L550.89-8.19L550.89-8.19Q550.89-8.63 550.72-8.86L550.72-8.86L550.72-8.86Q550.56-9.10 550.24-9.10L550.24-9.10L550.24-9.10Q549.92-9.10 549.64-8.98L549.64-8.98L549.64-8.98Q549.37-8.85 549.08-8.44L549.08-8.44L549.08-8.44Q548.38-7.49 547.98-5.28ZM560.25-10.07L560.25-10.07L560.25-10.07Q560.94-10.07 561.47-9.92L561.47-9.92L561.47-9.92Q561.49-9.99 561.53-10.20L561.53-10.20L561.62-10.79L561.62-10.79Q561.70-11.17 561.81-11.80L561.81-11.80L562.11-13.30L565.90-13.68L563.79-2.66L563.79-2.66Q563.77-2.55 563.77-2.36L563.77-2.36L563.77-2.05L563.77-2.05Q563.77-1.63 563.98-1.32L563.98-1.32L563.98-1.32Q564.19-1.01 564.53-1.01L564.53-1.01L564.53-1.01Q564.15-0.11 562.99 0.27L562.99 0.27L562.99 0.27Q562.59 0.38 562.03 0.38L562.03 0.38L562.03 0.38Q561.47 0.38 560.96 0.09L560.96 0.09L560.96 0.09Q560.44-0.21 560.29-0.70L560.29-0.70L560.29-0.70Q559.99-0.21 559.38 0.09L559.38 0.09L559.38 0.09Q558.77 0.38 557.89 0.38L557.89 0.38L557.89 0.38Q557.00 0.38 556.27 0.15L556.27 0.15L556.27 0.15Q555.54-0.08 555.08-0.57L555.08-0.57L555.08-0.57Q554.25-1.54 554.25-3.74L554.25-3.74L554.25-3.74Q554.25-6.59 555.92-8.32L555.92-8.32L555.92-8.32Q557.59-10.07 560.25-10.07ZM560.12-8.93L560.12-8.93L560.12-8.93Q559.42-8.93 559.04-8.17L559.04-8.17L559.04-8.17Q558.66-7.41 558.27-5.53L558.27-5.53L558.27-5.53Q557.88-3.65 557.88-1.96L557.88-1.96L557.88-1.96Q557.88-0.80 558.56-0.80L558.56-0.80L558.56-0.80Q559.17-0.80 559.60-1.41L559.60-1.41L559.60-1.41Q560.02-2.01 560.20-3.02L560.20-3.02L561.22-8.59L561.22-8.59Q560.82-8.93 560.12-8.93ZM579.61-2.11L579.61-2.11L579.61-2.11Q579.61-1.27 580.47-1.03L580.47-1.03L580.47-1.03Q580.26-0.32 579.44 0.06L579.44 0.06L579.44 0.06Q578.76 0.38 578.01 0.38L578.01 0.38L578.01 0.38Q577.26 0.38 576.87 0.18L576.87 0.18L576.87 0.18Q576.48-0.02 576.27-0.34L576.27-0.34L576.27-0.34Q575.93-0.84 575.93-1.77L575.93-1.77L575.93-1.77Q575.93-2.32 576.23-3.84L576.23-3.84L576.50-5.28L576.50-5.28Q576.82-6.93 576.82-7.54L576.82-7.54L576.82-7.54Q576.82-8.61 576.23-8.61L576.23-8.61L576.23-8.61Q575.49-8.61 575.02-7.52L575.02-7.52L575.02-7.52Q574.83-7.11 574.69-6.48L574.69-6.48L573.40 0L569.58 0.38L572.26-13.30L576.08-13.68L575.93-12.92L575.93-12.92Q575.40-9.99 574.94-9.01L574.94-9.01L574.94-9.01Q576.00-10.07 577.96-10.07L577.96-10.07L577.96-10.07Q580.03-10.07 580.41-8.70L580.41-8.70L580.41-8.70Q580.54-8.27 580.54-7.88L580.54-7.88L580.54-7.88Q580.54-7.50 580.52-7.21L580.52-7.21L580.52-7.21Q580.49-6.92 580.39-6.38L580.39-6.38L580.15-5.02L579.71-2.87L579.71-2.87Q579.61-2.43 579.61-2.11ZM589.70-3.21L589.70-3.21L589.70-3.21Q590.18-2.89 590.18-2.18L590.18-2.18L590.18-2.18Q590.18-1.46 589.82-1.01L589.82-1.01L589.82-1.01Q589.46-0.55 588.87-0.25L588.87-0.25L588.87-0.25Q587.65 0.38 586.34 0.38L586.34 0.38L586.34 0.38Q585.03 0.38 584.26 0.10L584.26 0.10L584.26 0.10Q583.49-0.19 582.98-0.72L582.98-0.72L582.98-0.72Q581.97-1.73 581.97-3.57L581.97-3.57L581.97-3.57Q581.97-6.44 583.53-8.19L583.53-8.19L583.53-8.19Q585.20-10.07 588.11-10.07L588.11-10.07L588.11-10.07Q589.91-10.07 590.80-9.31L590.80-9.31L590.80-9.31Q591.47-8.74 591.47-7.81L591.47-7.81L591.47-7.81Q591.47-4.46 585.69-4.46L585.69-4.46L585.69-4.46Q585.62-3.97 585.62-3.55L585.62-3.55L585.62-3.55Q585.62-2.68 586.01-2.35L586.01-2.35L586.01-2.35Q586.40-2.01 587.12-2.01L587.12-2.01L587.12-2.01Q587.84-2.01 588.61-2.35L588.61-2.35L588.61-2.35Q589.38-2.68 589.70-3.21ZM585.83-5.28L585.83-5.28L585.83-5.28Q587.18-5.28 587.95-6.12L587.95-6.12L587.95-6.12Q588.73-6.92 588.73-8.19L588.73-8.19L588.73-8.19Q588.73-8.63 588.57-8.86L588.57-8.86L588.57-8.86Q588.41-9.10 588.09-9.10L588.09-9.10L588.09-9.10Q587.76-9.10 587.49-8.98L587.49-8.98L587.49-8.98Q587.21-8.85 586.93-8.44L586.93-8.44L586.93-8.44Q586.23-7.49 585.83-5.28ZM598.06-5.34L598.06-5.34L598.06-5.34Q598.75-6.55 598.75-7.79L598.75-7.79L598.75-7.79Q598.75-8.61 598.16-8.61L598.16-8.61L598.16-8.61Q597.70-8.61 597.23-7.83L597.23-7.83L597.23-7.83Q596.73-7.05 596.58-6.04L596.58-6.04L595.59 0L591.66 0.38L593.60-9.69L596.73-10.07L596.39-8.15L596.39-8.15Q597.32-10.07 599.41-10.07L599.41-10.07L599.41-10.07Q600.51-10.07 601.11-9.50L601.11-9.50L601.11-9.50Q601.71-8.93 601.71-7.76L601.71-7.76L601.71-7.76Q601.71-6.59 600.94-5.85L600.94-5.85L600.94-5.85Q600.17-5.11 598.86-5.11L598.86-5.11L598.86-5.11Q598.29-5.11 598.06-5.34ZM609.71-3.21L609.71-3.21L609.71-3.21Q610.18-2.89 610.18-2.18L610.18-2.18L610.18-2.18Q610.18-1.46 609.82-1.01L609.82-1.01L609.82-1.01Q609.46-0.55 608.87-0.25L608.87-0.25L608.87-0.25Q607.66 0.38 606.35 0.38L606.35 0.38L606.35 0.38Q605.04 0.38 604.27 0.10L604.27 0.10L604.27 0.10Q603.50-0.19 602.98-0.72L602.98-0.72L602.98-0.72Q601.98-1.73 601.98-3.57L601.98-3.57L601.98-3.57Q601.98-6.44 603.53-8.19L603.53-8.19L603.53-8.19Q605.21-10.07 608.11-10.07L608.11-10.07L608.11-10.07Q609.92-10.07 610.81-9.31L610.81-9.31L610.81-9.31Q611.48-8.74 611.48-7.81L611.48-7.81L611.48-7.81Q611.48-4.46 605.70-4.46L605.70-4.46L605.70-4.46Q605.62-3.97 605.62-3.55L605.62-3.55L605.62-3.55Q605.62-2.68 606.01-2.35L606.01-2.35L606.01-2.35Q606.40-2.01 607.13-2.01L607.13-2.01L607.13-2.01Q607.85-2.01 608.62-2.35L608.62-2.35L608.62-2.35Q609.39-2.68 609.71-3.21ZM605.83-5.28L605.83-5.28L605.83-5.28Q607.18-5.28 607.96-6.12L607.96-6.12L607.96-6.12Q608.74-6.92 608.74-8.19L608.74-8.19L608.74-8.19Q608.74-8.63 608.58-8.86L608.58-8.86L608.58-8.86Q608.42-9.10 608.09-9.10L608.09-9.10L608.09-9.10Q607.77-9.10 607.50-8.98L607.50-8.98L607.50-8.98Q607.22-8.85 606.94-8.44L606.94-8.44L606.94-8.44Q606.23-7.49 605.83-5.28ZM611.55-1.12L611.55-1.12L611.55-1.12Q611.55-1.84 612.11-2.24L612.11-2.24L612.11-2.24Q612.67-2.64 613.47-2.64L613.47-2.64L613.47-2.64Q614.27-2.64 614.75-2.24L614.75-2.24L614.75-2.24Q615.24-1.84 615.24-1.12L615.24-1.12L615.24-1.12Q615.24-0.40 614.70-0.01L614.70-0.01L614.70-0.01Q614.16 0.38 613.36 0.38L613.36 0.38L613.36 0.38Q612.56 0.38 612.06-0.01L612.06-0.01L612.06-0.01Q611.55-0.40 611.55-1.12Z" fill="#ccc"></path></g></g><style>text {
  font-size: 84px;
  font-family: Arial Black;
  dominant-baseline: central;
  text-anchor: middle;
}</style></svg>